<svg width="434" height="311" viewBox="0 0 434 311" fill="none" xmlns="http://www.w3.org/2000/svg">
<g clip-path="url(#clip0_2787_10324)">
<path d="M430.753 190.985C430.753 190.985 428.359 112.776 355.654 108.926C273.376 104.562 278.492 193.21 278.492 193.21C278.492 193.21 301.269 181.402 349.63 182.856C405.004 184.311 430.753 190.985 430.753 190.985Z" fill="white"/>
<path d="M415.238 37.306C411.525 20.9626 392.791 36.6215 360.358 27.1234C333.372 19.1656 324.542 -1.79846 315.464 5.4748C306.387 12.7481 319.013 36.6215 357.8 50.2267C386.684 60.4093 419.53 56.3876 415.238 37.306Z" fill="#231F20"/>
<path d="M20.35 42.6966C22.6607 26.0965 42.7145 40.044 74.1569 27.5511C100.4 17.1974 107.415 -4.45125 117.07 1.96634C126.726 8.46949 116.08 33.3697 78.6133 50.3977C50.7196 63.1473 17.6267 62.0349 20.35 42.6966Z" fill="#231F20"/>
<path d="M3.26758 188.076C3.26758 188.076 6.73367 109.867 79.3565 107.043C161.635 103.792 155.445 192.354 155.445 192.354C155.445 192.354 132.833 180.289 84.4731 180.974C29.0982 181.744 3.26758 188.076 3.26758 188.076Z" fill="white"/>
<path d="M360.027 108.241C401.29 123.815 403.519 173.016 403.353 185.766C420.766 189.103 429.102 193.553 429.102 193.553C429.102 193.553 434.961 110.124 360.027 108.241Z" fill="#EFEFEF"/>
<path d="M86.2881 106.958C127.551 122.531 129.779 171.733 129.614 184.482C147.027 187.819 155.362 192.269 155.362 192.269C155.362 192.269 161.304 108.84 86.2881 106.958Z" fill="#EFEFEF"/>
<path d="M119.217 173.444C119.217 150.598 101.392 132.115 79.3571 132.115C57.3227 132.115 39.4971 150.598 39.4971 173.444C39.4971 176.781 39.9097 180.119 40.6524 183.199C52.3711 182.258 66.8957 181.402 84.4737 181.145C97.5953 180.974 108.736 181.744 118.144 182.857C118.887 179.948 119.217 176.781 119.217 173.444Z" fill="#231F20"/>
<path d="M70.2803 171.048C77.3904 171.048 83.1543 165.072 83.1543 157.7C83.1543 150.327 77.3904 144.351 70.2803 144.351C63.1702 144.351 57.4062 150.327 57.4062 157.7C57.4062 165.072 63.1702 171.048 70.2803 171.048Z" fill="white"/>
<path d="M314.969 174.813C315.299 151.967 333.372 133.741 355.324 134.083C377.358 134.425 394.936 153.164 394.606 175.926C394.524 179.263 394.111 182.6 393.368 185.68C381.65 184.568 367.125 183.541 349.63 183.028C336.508 182.685 325.367 183.284 315.959 184.311C315.299 181.231 314.969 178.065 314.969 174.813Z" fill="#231F20"/>
<path d="M376.982 159.876C377.077 152.504 371.39 146.449 364.281 146.351C357.171 146.253 351.331 152.149 351.237 159.521C351.142 166.892 356.829 172.947 363.938 173.045C371.048 173.143 376.888 167.247 376.982 159.876Z" fill="white"/>
<path d="M347.813 294.694C346.492 294.694 345.172 294.009 344.429 292.811C344.346 292.726 336.259 280.575 318.516 268.681C302.258 257.729 274.199 244.722 233.267 244.722C233.101 244.722 232.936 244.722 232.771 244.722C170.134 244.893 123.507 291.785 123.012 292.298C121.361 293.924 118.803 293.924 117.153 292.298C115.585 290.587 115.585 287.934 117.153 286.223C117.648 285.709 129.614 273.559 149.833 261.237C168.566 249.856 198.111 236.251 232.689 236.166C232.854 236.166 233.019 236.166 233.267 236.166C276.51 236.166 306.137 250.113 323.385 261.75C342.366 274.585 350.866 287.506 351.279 288.02C352.516 289.988 352.104 292.64 350.206 293.924C349.381 294.437 348.555 294.694 347.813 294.694Z" fill="#231F20"/>
<path d="M105.766 272.018C99.2463 282.885 98.0909 296.918 102.795 308.727C103.208 309.754 104.198 310.524 105.353 310.181C106.344 309.925 107.251 308.641 106.756 307.529C102.465 296.662 103.373 284.083 109.314 274.157C110.717 271.847 107.169 269.622 105.766 272.018Z" fill="#231F20"/>
<path d="M352.517 275.355C360.357 283.228 363.328 295.635 360.11 306.416C359.285 309.069 363.328 310.181 364.071 307.529C367.785 295.293 364.319 281.26 355.406 272.275C353.508 270.392 350.537 273.473 352.517 275.355Z" fill="#231F20"/>
<path d="M141.251 169.423C140.178 168.396 139.105 167.455 137.785 166.941C135.722 166.171 133.493 166.684 131.348 166.342C126.561 165.401 123.755 160.267 119.546 157.614C113.44 153.764 105.104 156.074 100.07 161.379C97.0169 164.631 94.211 169.251 89.8372 169.337C87.774 169.423 85.7934 168.396 83.7302 168.054C78.4486 167.112 73.497 170.535 68.2979 171.819C63.3464 173.102 57.8996 172.417 53.3607 170.022C47.8315 167.027 42.5498 161.465 36.608 163.262C30.9137 165.059 28.768 172.76 23.1562 174.813C19.195 176.354 14.4085 174.471 10.6123 176.354C6.73358 178.322 5.33064 183.199 4.42285 187.649L79.4389 181.145L152.557 189.445C152.639 181.402 146.863 174.813 141.251 169.423Z" fill="#7ECDEC"/>
<path d="M155.446 195.435C154.951 195.435 154.455 195.349 154.043 195.093C153.795 195.007 131.348 183.37 84.556 184.055C30.2539 184.825 4.25828 190.986 3.92818 191.071C3.0204 191.328 2.03008 191.071 1.28735 190.387C0.544618 189.788 0.131989 188.761 0.214515 187.819C0.214515 186.964 1.20483 167.369 11.3555 147.089C20.7635 128.179 40.2396 105.332 79.2743 103.792C103.867 102.851 123.343 109.782 136.96 124.499C161.14 150.426 158.582 190.814 158.499 192.526C158.417 193.553 157.839 194.494 156.931 195.093C156.519 195.349 155.941 195.435 155.446 195.435ZM88.5998 177.722C123.261 177.722 144.057 184.226 152.475 187.563C152.392 176.61 150.329 147.945 132.504 128.863C120.042 115.515 102.217 109.268 79.4394 110.124C50.4728 111.236 29.3462 124.67 16.7197 149.999C9.87005 163.775 7.4768 177.466 6.65154 184.055C15.977 182.258 41.1474 178.321 84.3909 177.722C85.8764 177.722 87.2794 177.722 88.5998 177.722Z" fill="#231F20"/>
<path d="M295.328 172.759C300.939 171.989 306.469 175.241 312.08 174.471C317.197 173.701 321.241 169.765 325.862 167.283C331.061 164.459 337.168 163.433 342.945 164.459C351.115 165.914 358.79 171.219 367.043 170.021C374.387 168.909 379.917 162.834 386.519 159.496C395.184 155.132 405.995 155.646 414.247 160.866C422.5 166.085 427.864 175.84 427.947 185.851C427.947 186.621 427.947 187.392 427.452 187.99C426.874 188.761 425.801 188.846 424.893 188.846C421.51 188.846 418.209 188.247 414.825 187.648C386.023 182.856 356.644 182.257 327.43 183.37C319.673 183.627 311.833 184.054 304.075 185.338C296.153 186.621 288.891 190.643 281.298 192.098C280.308 184.14 287.735 173.786 295.328 172.759Z" fill="#7ECDEC"/>
<path d="M278.573 196.291C278.078 196.291 277.501 196.119 277.005 195.863C276.098 195.349 275.52 194.408 275.52 193.296C275.437 191.584 273.457 151.196 297.885 125.612C311.749 111.151 331.225 104.391 355.9 105.76C394.852 107.813 413.998 130.917 423.241 149.998C433.144 170.449 433.805 190.044 433.887 190.9C433.887 191.927 433.475 192.868 432.732 193.467C431.989 194.066 430.999 194.323 430.091 194.066C429.843 193.98 403.848 187.477 349.628 185.937C302.836 184.568 280.224 195.863 279.976 196.034C279.481 196.205 278.986 196.291 278.573 196.291ZM349.958 111.835C329.822 111.835 313.729 117.91 302.176 129.976C284.185 148.8 281.709 177.38 281.462 188.418C290.292 185.081 312.492 178.492 349.628 179.605C392.872 180.803 418.042 185.081 427.285 186.964C426.542 180.289 424.314 166.427 417.547 152.565C405.168 127.152 384.289 113.547 355.405 112.006C353.672 111.921 351.774 111.835 349.958 111.835Z" fill="#231F20"/>
</g>
<defs>
<clipPath id="clip0_2787_10324">
<rect width="433.591" height="309.413" fill="white" transform="translate(0.204102 0.854004)"/>
</clipPath>
</defs>
</svg>
