<svg width="302" height="54" viewBox="0 0 302 54" fill="none" xmlns="http://www.w3.org/2000/svg">
<g filter="url(#filter0_dd_1563_1856)">
<rect x="10" y="10" width="46.6143" height="30.0304" rx="5.37857" fill="white"/>
<rect x="9.88795" y="9.88795" width="46.8384" height="30.2545" rx="5.49062" stroke="#D6DCE5" stroke-width="0.224107"/>
<path d="M33.0222 20.121L30.848 30.2845H28.2189L30.3935 20.121H33.0222ZM44.0839 26.6836L45.4681 22.8669L46.2646 26.6836H44.0839ZM47.0173 30.2845H49.4492L47.3271 20.121H45.0824C44.578 20.121 44.1524 20.4144 43.963 20.8667L40.0185 30.2845H42.7795L43.3276 28.7668H46.7008L47.0173 30.2845ZM40.1555 26.9661C40.1668 24.2836 36.4459 24.1359 36.4716 22.9376C36.4794 22.5725 36.8271 22.1852 37.5866 22.0858C37.9639 22.0366 39.0013 21.999 40.1793 22.541L40.6406 20.3857C40.0079 20.1561 39.1937 19.9351 38.1811 19.9351C35.5825 19.9351 33.7534 21.3167 33.738 23.295C33.7216 24.758 35.0437 25.5745 36.0399 26.0609C37.0642 26.5591 37.4084 26.8782 37.4039 27.3238C37.3971 28.0061 36.5868 28.3065 35.8308 28.3184C34.5087 28.3393 33.7415 27.9617 33.13 27.6767L32.6536 29.9037C33.2677 30.1858 34.4016 30.4309 35.578 30.4435C38.3396 30.4435 40.1465 29.0789 40.1555 26.9661ZM29.2653 20.121L25.0056 30.2845H22.226L20.1299 22.1733C20.0025 21.6738 19.8918 21.491 19.5049 21.2803C18.8734 20.9377 17.8295 20.6157 16.9111 20.4163L16.9739 20.121H21.4475C22.0175 20.121 22.5306 20.5006 22.6599 21.1571L23.7671 27.0388L26.503 20.121H29.2653Z" fill="#1434CB"/>
</g>
<g filter="url(#filter1_dd_1563_1856)">
<rect x="68.6143" y="10" width="46.6143" height="30.0304" rx="5.37857" fill="white"/>
<rect x="68.5022" y="9.88795" width="46.8384" height="30.2545" rx="5.49062" stroke="#D6DCE5" stroke-width="0.224107"/>
<path d="M95.2698 18.8484H88.4065V31.1819H95.2698V18.8484Z" fill="#FF5F00"/>
<path d="M88.8423 25.0151C88.8412 23.8273 89.1104 22.6548 89.6294 21.5864C90.1485 20.518 90.9038 19.5817 91.8382 18.8484C90.6811 17.9389 89.2914 17.3732 87.828 17.2162C86.3647 17.0591 84.8866 17.3169 83.5628 17.9602C82.2391 18.6034 81.123 19.6061 80.3421 20.8537C79.5613 22.1013 79.1472 23.5434 79.1472 25.0151C79.1472 26.4869 79.5613 27.929 80.3421 29.1766C81.123 30.4241 82.2391 31.4269 83.5628 32.0701C84.8866 32.7133 86.3647 32.9712 87.828 32.8141C89.2914 32.657 90.6811 32.0914 91.8382 31.1819C90.9038 30.4485 90.1485 29.5122 89.6295 28.4438C89.1104 27.3754 88.8413 26.2029 88.8423 25.0151Z" fill="#EB001B"/>
<path d="M104.529 25.0151C104.529 26.4869 104.115 27.929 103.334 29.1765C102.553 30.4241 101.437 31.4268 100.113 32.0701C98.7896 32.7133 97.3116 32.9712 95.8483 32.8141C94.3849 32.657 92.9953 32.0914 91.8382 31.1819C92.7717 30.4478 93.5265 29.5113 94.0454 28.4431C94.5644 27.3749 94.834 26.2028 94.834 25.0151C94.834 23.8275 94.5644 22.6554 94.0454 21.5872C93.5265 20.5189 92.7717 19.5825 91.8382 18.8484C92.9953 17.9389 94.3849 17.3732 95.8483 17.2162C97.3116 17.0591 98.7896 17.3169 100.113 17.9602C101.437 18.6034 102.553 19.6062 103.334 20.8537C104.115 22.1013 104.529 23.5434 104.529 25.0151Z" fill="#F79E1B"/>
<path d="M103.78 29.8756V29.6231H103.882V29.5716H103.623V29.6231H103.725V29.8756H103.78ZM104.284 29.8756V29.5711H104.204L104.113 29.7805L104.021 29.5711H103.942V29.8756H103.998V29.6459L104.084 29.8439H104.142L104.228 29.6454V29.8756H104.284Z" fill="#F79E1B"/>
</g>
<g filter="url(#filter2_dd_1563_1856)">
<rect x="127.229" y="10" width="46.6143" height="30.0304" rx="5.37857" fill="white"/>
<rect x="127.116" y="9.88795" width="46.8384" height="30.2545" rx="5.49062" stroke="#D6DCE5" stroke-width="0.224107"/>
<path fill-rule="evenodd" clip-rule="evenodd" d="M137.426 20.646H134.738C134.554 20.646 134.398 20.7796 134.369 20.9611L133.282 27.8518C133.261 27.9879 133.366 28.1104 133.504 28.1104H134.787C134.971 28.1104 135.127 27.9768 135.156 27.7949L135.449 25.9364C135.477 25.7544 135.634 25.6209 135.818 25.6209H136.668C138.439 25.6209 139.46 24.7643 139.727 23.0669C139.848 22.3243 139.732 21.7408 139.384 21.332C139.003 20.8835 138.325 20.646 137.426 20.646ZM137.736 23.1627C137.589 24.127 136.852 24.127 136.139 24.127H135.734L136.018 22.3261C136.035 22.2174 136.13 22.1372 136.24 22.1372H136.425C136.911 22.1372 137.369 22.1372 137.605 22.4138C137.746 22.5789 137.789 22.824 137.736 23.1627ZM145.459 23.1318H144.172C144.063 23.1318 143.968 23.212 143.951 23.3209L143.894 23.6808L143.804 23.5504C143.525 23.146 142.904 23.0109 142.284 23.0109C140.862 23.0109 139.647 24.0879 139.411 25.5988C139.288 26.3523 139.462 27.0729 139.89 27.5755C140.282 28.0375 140.843 28.2301 141.511 28.2301C142.657 28.2301 143.292 27.4933 143.292 27.4933L143.235 27.8509C143.213 27.9877 143.319 28.1102 143.456 28.1102H144.615C144.799 28.1102 144.955 27.9766 144.984 27.7948L145.68 23.3904C145.702 23.2549 145.597 23.1318 145.459 23.1318ZM143.665 25.6364C143.541 26.3715 142.957 26.865 142.213 26.865C141.84 26.865 141.541 26.7452 141.349 26.5181C141.159 26.2926 141.086 25.9715 141.147 25.614C141.263 24.8851 141.856 24.3756 142.589 24.3756C142.955 24.3756 143.252 24.4968 143.447 24.726C143.644 24.9574 143.721 25.2804 143.665 25.6364ZM151.02 23.1317H152.313C152.495 23.1317 152.6 23.3348 152.497 23.4833L148.196 29.6914C148.126 29.792 148.011 29.8518 147.889 29.8518H146.597C146.415 29.8518 146.309 29.6471 146.414 29.4982L147.754 27.6078L146.329 23.4279C146.28 23.2826 146.387 23.1317 146.542 23.1317H147.813C147.978 23.1317 148.123 23.24 148.171 23.398L148.927 25.9226L150.711 23.2955C150.781 23.1929 150.897 23.1317 151.02 23.1317Z" fill="#253B80"/>
<path fill-rule="evenodd" clip-rule="evenodd" d="M165.043 27.8512L166.146 20.8345C166.162 20.7256 166.257 20.6454 166.367 20.645H167.608C167.745 20.645 167.851 20.7679 167.829 20.9039L166.741 27.7943C166.713 27.9762 166.557 28.1098 166.372 28.1098H165.263C165.126 28.1098 165.021 27.9872 165.043 27.8512ZM156.596 20.6454H153.908C153.724 20.6454 153.568 20.779 153.539 20.9605L152.452 27.8512C152.431 27.9872 152.536 28.1098 152.673 28.1098H154.052C154.18 28.1098 154.29 28.0163 154.31 27.8891L154.619 25.9358C154.647 25.7538 154.804 25.6203 154.987 25.6203H155.838C157.608 25.6203 158.63 24.7637 158.897 23.0663C159.017 22.3237 158.902 21.7402 158.554 21.3314C158.172 20.8829 157.495 20.6454 156.596 20.6454ZM156.906 23.1621C156.759 24.1264 156.022 24.1264 155.309 24.1264H154.904L155.189 22.3255C155.206 22.2168 155.3 22.1366 155.41 22.1366H155.596C156.081 22.1366 156.539 22.1366 156.776 22.4132C156.917 22.5783 156.96 22.8234 156.906 23.1621ZM164.629 23.1312H163.342C163.232 23.1312 163.138 23.2114 163.122 23.3203L163.065 23.6802L162.974 23.5498C162.696 23.1454 162.075 23.0103 161.455 23.0103C160.032 23.0103 158.818 24.0873 158.582 25.5981C158.459 26.3517 158.633 27.0723 159.061 27.5748C159.454 28.0369 160.014 28.2294 160.682 28.2294C161.827 28.2294 162.463 27.4927 162.463 27.4927L162.406 27.8503C162.384 27.9871 162.489 28.1096 162.627 28.1096H163.786C163.97 28.1096 164.126 27.976 164.155 27.7941L164.851 23.3898C164.872 23.2543 164.767 23.1312 164.629 23.1312ZM162.835 25.6358C162.711 26.3709 162.127 26.8644 161.383 26.8644C161.01 26.8644 160.71 26.7446 160.518 26.5175C160.328 26.292 160.257 25.9709 160.317 25.6134C160.433 24.8845 161.026 24.375 161.759 24.375C162.124 24.375 162.421 24.4962 162.617 24.7253C162.814 24.9568 162.892 25.2798 162.835 25.6358Z" fill="#179BD7"/>
</g>
<g filter="url(#filter3_dd_1563_1856)">
<rect x="185.843" y="10" width="46.6143" height="30.0304" rx="5.37857" fill="white"/>
<rect x="185.731" y="9.88795" width="46.8384" height="30.2545" rx="5.49062" stroke="#D6DCE5" stroke-width="0.224107"/>
<path d="M200.92 21.0817C201.231 20.6927 201.442 20.1704 201.386 19.6367C200.931 19.6594 200.375 19.9371 200.054 20.3264C199.765 20.6597 199.509 21.2039 199.576 21.7152C200.087 21.7595 200.598 21.4598 200.92 21.0817Z" fill="#000008"/>
<path d="M201.38 21.8151C200.638 21.7709 200.007 22.2363 199.653 22.2363C199.298 22.2363 198.755 21.8373 198.168 21.8481C197.404 21.8593 196.696 22.2913 196.308 22.9784C195.51 24.3528 196.097 26.3916 196.873 27.511C197.249 28.0648 197.703 28.6746 198.301 28.6527C198.866 28.6305 199.088 28.2868 199.775 28.2868C200.461 28.2868 200.66 28.6527 201.259 28.6416C201.879 28.6305 202.267 28.0875 202.643 27.5332C203.075 26.9019 203.252 26.2923 203.263 26.2588C203.252 26.2477 202.067 25.7932 202.056 24.4302C202.045 23.2889 202.986 22.746 203.031 22.7123C202.499 21.926 201.668 21.8373 201.38 21.8151Z" fill="#000008"/>
<path d="M207.842 20.2705C209.455 20.2705 210.579 21.3824 210.579 23.0013C210.579 24.6259 209.432 25.7435 207.802 25.7435H206.016V28.5837H204.726V20.2705L207.842 20.2705ZM206.016 24.6604H207.497C208.62 24.6604 209.259 24.0556 209.259 23.007C209.259 21.9586 208.62 21.3594 207.502 21.3594H206.016V24.6604Z" fill="#000008"/>
<path d="M210.916 26.8612C210.916 25.8011 211.728 25.1501 213.169 25.0695L214.828 24.9716V24.505C214.828 23.8309 214.372 23.4276 213.612 23.4276C212.892 23.4276 212.442 23.7732 212.333 24.3148H211.158C211.227 23.2201 212.16 22.4136 213.658 22.4136C215.127 22.4136 216.066 23.1914 216.066 24.4069V28.5837H214.874V27.5871H214.845C214.494 28.2611 213.727 28.6874 212.932 28.6874C211.745 28.6874 210.916 27.95 210.916 26.8612ZM214.828 26.3139V25.8358L213.335 25.9279C212.592 25.9798 212.172 26.3081 212.172 26.8266C212.172 27.3566 212.61 27.7023 213.278 27.7023C214.148 27.7023 214.828 27.1031 214.828 26.3139Z" fill="#000008"/>
<path d="M217.192 30.8133V29.8051C217.284 29.8281 217.491 29.8281 217.595 29.8281C218.171 29.8281 218.482 29.5861 218.672 28.964C218.672 28.9524 218.782 28.5953 218.782 28.5895L216.593 22.5231H217.941L219.473 27.4546H219.496L221.029 22.5231H222.342L220.072 28.9005C219.554 30.3697 218.955 30.8421 217.699 30.8421C217.595 30.8421 217.284 30.8305 217.192 30.8133Z" fill="#000008"/>
</g>
<g filter="url(#filter4_dd_1563_1856)">
<rect x="244.457" y="10" width="46.6143" height="30.0304" rx="5.37857" fill="white"/>
<rect x="244.345" y="9.88795" width="46.8384" height="30.2545" rx="5.49062" stroke="#D6DCE5" stroke-width="0.224107"/>
<path d="M266.751 28.6143H265.703V20.4561H268.482C269.186 20.4561 269.787 20.6909 270.279 21.1605C270.781 21.6301 271.032 22.2035 271.032 22.8806C271.032 23.5741 270.781 24.1475 270.279 24.6116C269.793 25.0758 269.192 25.3051 268.482 25.3051H266.751V28.6143ZM266.751 21.4608V24.3058H268.504C268.919 24.3058 269.268 24.1639 269.541 23.8854C269.82 23.6069 269.962 23.2683 269.962 22.8861C269.962 22.5093 269.82 22.1762 269.541 21.8977C269.268 21.6083 268.924 21.4663 268.504 21.4663H266.751V21.4608Z" fill="#3C4043"/>
<path d="M273.773 22.8478C274.549 22.8478 275.16 23.0553 275.608 23.4703C276.056 23.8854 276.28 24.4533 276.28 25.1741V28.6143H275.28V27.8389H275.237C274.805 28.4778 274.226 28.7945 273.506 28.7945C272.889 28.7945 272.375 28.6143 271.96 28.2484C271.545 27.8826 271.338 27.4293 271.338 26.8833C271.338 26.3044 271.556 25.8457 271.993 25.5072C272.43 25.1632 273.014 24.9939 273.74 24.9939C274.363 24.9939 274.876 25.1085 275.275 25.3379V25.0976C275.275 24.7318 275.133 24.426 274.844 24.1693C274.554 23.9127 274.216 23.7871 273.828 23.7871C273.244 23.7871 272.779 24.0328 272.441 24.5297L271.518 23.9509C272.026 23.2137 272.779 22.8478 273.773 22.8478ZM272.419 26.8996C272.419 27.1727 272.534 27.402 272.768 27.5822C272.998 27.7624 273.271 27.8553 273.582 27.8553C274.024 27.8553 274.418 27.6914 274.762 27.3638C275.106 27.0362 275.28 26.6539 275.28 26.2116C274.953 25.955 274.5 25.8239 273.915 25.8239C273.489 25.8239 273.134 25.9276 272.85 26.1297C272.561 26.3427 272.419 26.5993 272.419 26.8996Z" fill="#3C4043"/>
<path d="M281.981 23.0281L278.486 31.0662H277.405L278.704 28.2539L276.4 23.0281H277.541L279.201 27.0362H279.223L280.839 23.0281H281.981Z" fill="#3C4043"/>
<path d="M262.581 24.6444C262.581 24.3026 262.55 23.9755 262.493 23.6609H258.098V25.4629L260.63 25.4635C260.527 26.0631 260.196 26.5742 259.69 26.9149V28.0841H261.197C262.077 27.2699 262.581 26.0664 262.581 24.6444Z" fill="#4285F4"/>
<path d="M259.691 26.915C259.271 27.1979 258.731 27.3633 258.1 27.3633C256.879 27.3633 255.844 26.5409 255.473 25.4324H253.919V26.6381C254.689 28.166 256.271 29.2145 258.1 29.2145C259.363 29.2145 260.425 28.7989 261.197 28.0836L259.691 26.915Z" fill="#34A853"/>
<path d="M255.327 24.5379C255.327 24.2266 255.378 23.9258 255.473 23.6429V22.4372H253.919C253.6 23.069 253.421 23.7821 253.421 24.5379C253.421 25.2937 253.601 26.0068 253.919 26.6386L255.473 25.4329C255.378 25.15 255.327 24.8492 255.327 24.5379Z" fill="#FABB05"/>
<path d="M258.1 21.712C258.789 21.712 259.407 21.9495 259.894 22.4137L261.23 21.0797C260.419 20.3245 259.362 19.8608 258.1 19.8608C256.272 19.8608 254.689 20.9093 253.919 22.4372L255.473 23.6429C255.844 22.5344 256.879 21.712 258.1 21.712Z" fill="#E94235"/>
</g>
<defs>
<filter id="filter0_dd_1563_1856" x="0.811593" y="5.29374" width="64.9911" height="48.4071" filterUnits="userSpaceOnUse" color-interpolation-filters="sRGB">
<feFlood flood-opacity="0" result="BackgroundImageFix"/>
<feColorMatrix in="SourceAlpha" type="matrix" values="0 0 0 0 0 0 0 0 0 0 0 0 0 0 0 0 0 0 127 0" result="hardAlpha"/>
<feOffset dy="0.448214"/>
<feGaussianBlur stdDeviation="2.24107"/>
<feColorMatrix type="matrix" values="0 0 0 0 0.717647 0 0 0 0 0.717647 0 0 0 0 0.717647 0 0 0 0.08 0"/>
<feBlend mode="normal" in2="BackgroundImageFix" result="effect1_dropShadow_1563_1856"/>
<feColorMatrix in="SourceAlpha" type="matrix" values="0 0 0 0 0 0 0 0 0 0 0 0 0 0 0 0 0 0 127 0" result="hardAlpha"/>
<feOffset dy="4.48214"/>
<feGaussianBlur stdDeviation="4.48214"/>
<feColorMatrix type="matrix" values="0 0 0 0 0.717647 0 0 0 0 0.717647 0 0 0 0 0.717647 0 0 0 0.08 0"/>
<feBlend mode="normal" in2="effect1_dropShadow_1563_1856" result="effect2_dropShadow_1563_1856"/>
<feBlend mode="normal" in="SourceGraphic" in2="effect2_dropShadow_1563_1856" result="shape"/>
</filter>
<filter id="filter1_dd_1563_1856" x="59.4259" y="5.29374" width="64.9911" height="48.4071" filterUnits="userSpaceOnUse" color-interpolation-filters="sRGB">
<feFlood flood-opacity="0" result="BackgroundImageFix"/>
<feColorMatrix in="SourceAlpha" type="matrix" values="0 0 0 0 0 0 0 0 0 0 0 0 0 0 0 0 0 0 127 0" result="hardAlpha"/>
<feOffset dy="0.448214"/>
<feGaussianBlur stdDeviation="2.24107"/>
<feColorMatrix type="matrix" values="0 0 0 0 0.717647 0 0 0 0 0.717647 0 0 0 0 0.717647 0 0 0 0.08 0"/>
<feBlend mode="normal" in2="BackgroundImageFix" result="effect1_dropShadow_1563_1856"/>
<feColorMatrix in="SourceAlpha" type="matrix" values="0 0 0 0 0 0 0 0 0 0 0 0 0 0 0 0 0 0 127 0" result="hardAlpha"/>
<feOffset dy="4.48214"/>
<feGaussianBlur stdDeviation="4.48214"/>
<feColorMatrix type="matrix" values="0 0 0 0 0.717647 0 0 0 0 0.717647 0 0 0 0 0.717647 0 0 0 0.08 0"/>
<feBlend mode="normal" in2="effect1_dropShadow_1563_1856" result="effect2_dropShadow_1563_1856"/>
<feBlend mode="normal" in="SourceGraphic" in2="effect2_dropShadow_1563_1856" result="shape"/>
</filter>
<filter id="filter2_dd_1563_1856" x="118.04" y="5.29374" width="64.9911" height="48.4071" filterUnits="userSpaceOnUse" color-interpolation-filters="sRGB">
<feFlood flood-opacity="0" result="BackgroundImageFix"/>
<feColorMatrix in="SourceAlpha" type="matrix" values="0 0 0 0 0 0 0 0 0 0 0 0 0 0 0 0 0 0 127 0" result="hardAlpha"/>
<feOffset dy="0.448214"/>
<feGaussianBlur stdDeviation="2.24107"/>
<feColorMatrix type="matrix" values="0 0 0 0 0.717647 0 0 0 0 0.717647 0 0 0 0 0.717647 0 0 0 0.08 0"/>
<feBlend mode="normal" in2="BackgroundImageFix" result="effect1_dropShadow_1563_1856"/>
<feColorMatrix in="SourceAlpha" type="matrix" values="0 0 0 0 0 0 0 0 0 0 0 0 0 0 0 0 0 0 127 0" result="hardAlpha"/>
<feOffset dy="4.48214"/>
<feGaussianBlur stdDeviation="4.48214"/>
<feColorMatrix type="matrix" values="0 0 0 0 0.717647 0 0 0 0 0.717647 0 0 0 0 0.717647 0 0 0 0.08 0"/>
<feBlend mode="normal" in2="effect1_dropShadow_1563_1856" result="effect2_dropShadow_1563_1856"/>
<feBlend mode="normal" in="SourceGraphic" in2="effect2_dropShadow_1563_1856" result="shape"/>
</filter>
<filter id="filter3_dd_1563_1856" x="176.654" y="5.29374" width="64.9911" height="48.4071" filterUnits="userSpaceOnUse" color-interpolation-filters="sRGB">
<feFlood flood-opacity="0" result="BackgroundImageFix"/>
<feColorMatrix in="SourceAlpha" type="matrix" values="0 0 0 0 0 0 0 0 0 0 0 0 0 0 0 0 0 0 127 0" result="hardAlpha"/>
<feOffset dy="0.448214"/>
<feGaussianBlur stdDeviation="2.24107"/>
<feColorMatrix type="matrix" values="0 0 0 0 0.717647 0 0 0 0 0.717647 0 0 0 0 0.717647 0 0 0 0.08 0"/>
<feBlend mode="normal" in2="BackgroundImageFix" result="effect1_dropShadow_1563_1856"/>
<feColorMatrix in="SourceAlpha" type="matrix" values="0 0 0 0 0 0 0 0 0 0 0 0 0 0 0 0 0 0 127 0" result="hardAlpha"/>
<feOffset dy="4.48214"/>
<feGaussianBlur stdDeviation="4.48214"/>
<feColorMatrix type="matrix" values="0 0 0 0 0.717647 0 0 0 0 0.717647 0 0 0 0 0.717647 0 0 0 0.08 0"/>
<feBlend mode="normal" in2="effect1_dropShadow_1563_1856" result="effect2_dropShadow_1563_1856"/>
<feBlend mode="normal" in="SourceGraphic" in2="effect2_dropShadow_1563_1856" result="shape"/>
</filter>
<filter id="filter4_dd_1563_1856" x="235.269" y="5.29374" width="64.9911" height="48.4071" filterUnits="userSpaceOnUse" color-interpolation-filters="sRGB">
<feFlood flood-opacity="0" result="BackgroundImageFix"/>
<feColorMatrix in="SourceAlpha" type="matrix" values="0 0 0 0 0 0 0 0 0 0 0 0 0 0 0 0 0 0 127 0" result="hardAlpha"/>
<feOffset dy="0.448214"/>
<feGaussianBlur stdDeviation="2.24107"/>
<feColorMatrix type="matrix" values="0 0 0 0 0.717647 0 0 0 0 0.717647 0 0 0 0 0.717647 0 0 0 0.08 0"/>
<feBlend mode="normal" in2="BackgroundImageFix" result="effect1_dropShadow_1563_1856"/>
<feColorMatrix in="SourceAlpha" type="matrix" values="0 0 0 0 0 0 0 0 0 0 0 0 0 0 0 0 0 0 127 0" result="hardAlpha"/>
<feOffset dy="4.48214"/>
<feGaussianBlur stdDeviation="4.48214"/>
<feColorMatrix type="matrix" values="0 0 0 0 0.717647 0 0 0 0 0.717647 0 0 0 0 0.717647 0 0 0 0.08 0"/>
<feBlend mode="normal" in2="effect1_dropShadow_1563_1856" result="effect2_dropShadow_1563_1856"/>
<feBlend mode="normal" in="SourceGraphic" in2="effect2_dropShadow_1563_1856" result="shape"/>
</filter>
</defs>
</svg>
