<svg width="129" height="82" viewBox="0 0 129 82" fill="none" xmlns="http://www.w3.org/2000/svg">
<path opacity="0.5" d="M118.322 19.981C111.016 25.7636 104.475 32.3471 94.6206 29.0444C85.8927 26.1147 78.4553 21.9122 80.6099 10.5446C77.8866 10.797 76.246 12.1466 75.2507 13.5621C70.4492 20.387 62.7385 22.9546 56.2089 27.2668C44.0686 35.2988 31.2829 41.597 16.5942 43.21C15.3583 43.3417 14.1552 43.8574 12.9411 44.2195C10.1849 45.0534 9.29903 47.2369 9.36465 49.7716C9.45215 52.6354 12.0115 52.6574 13.9364 52.9207C21.9862 54.0509 30.1017 53.6339 38.1843 53.5132C57.073 53.2499 51.8997 56.2454 63.6791 42.0688C69.9133 34.5636 77.6131 33.0165 87.1723 36.5167C89.0207 37.197 91.23 36.9008 93.2753 36.9666C95.3862 37.0324 97.9018 36.9337 97.858 39.7756C97.8252 42.2444 95.5065 42.4639 93.5269 42.2883C87.5004 41.7616 82.0537 45.3387 75.896 44.5596C73.5117 44.2524 71.5539 46.6444 70.3946 48.6743C63.2963 61.1063 52.4137 64.5407 38.9171 62.9496C33.2844 62.2913 27.4986 62.8838 21.7894 62.818C17.9832 62.7741 14.188 62.6863 10.4584 61.6878C3.7429 59.8883 0.494531 56.7831 0.0679783 51.5272C-0.522634 44.1207 2.75854 38.2065 9.00372 35.7486C15.0848 33.3566 21.5488 32.3471 27.9361 31.2279C31.622 30.5806 34.7828 29.2529 37.9218 27.1791C42.7998 23.9422 48.0607 21.2978 53.1246 18.3242C58.7026 15.0544 64.5103 12.1796 68.7758 6.94563C71.0617 4.13665 74.3757 2.31521 77.8647 1.02044C83.8146 -1.19602 86.6911 0.0658301 88.7254 6.11172C89.327 7.90025 89.666 9.82045 89.8301 11.7077C90.4316 18.6753 97.7814 22.7571 103.819 19.1362C107.341 17.0294 110.37 14.1327 113.75 11.7845C120.761 6.92369 125.562 8.63541 127.17 16.9526C129.423 28.5835 129.237 40.423 128.504 52.1746C128.11 58.4838 122.707 62.6644 115.904 62.7741C106.859 62.9277 97.8033 62.9935 88.7691 62.7521C84.8536 62.6534 82.0537 64.003 79.7897 67.0095C78.2584 69.0394 76.6288 70.9925 75.0538 72.9895C68.2071 81.5811 60.901 83.4574 50.2809 79.8035C48.1372 79.0684 45.5888 79.4853 43.2155 79.4085C41.2686 79.3427 39.5187 78.7172 39.639 76.5337C39.7374 74.6903 41.4108 73.8893 43.1389 74.1307C49.3622 74.9865 54.9511 71.1132 61.2619 71.9033C64.0291 72.2544 66.2056 69.6429 67.5618 67.3387C74.2335 56.0479 83.9349 51.8673 96.808 53.4474C102.747 54.1826 108.861 53.5571 114.887 53.5791C117.665 53.5791 119.437 52.6903 119.426 49.4753C119.393 39.9402 119.82 30.383 118.343 19.992L118.322 19.981Z" fill="#01497C"/>
</svg>
