<svg width="74" height="55" viewBox="0 0 74 55" fill="none" xmlns="http://www.w3.org/2000/svg">
<path d="M16.6761 54.1818C13.8968 54.1818 11.5343 53.209 9.58878 51.2635C7.64323 49.3179 6.67045 46.9555 6.67045 44.1761H0V7.48863C0 5.65426 0.653705 4.08447 1.96111 2.77929C3.26852 1.4741 4.8383 0.8204 6.67045 0.818176H53.3636V14.1591H63.3693L73.375 27.5V44.1761H66.7045C66.7045 46.9555 65.7318 49.3179 63.7862 51.2635C61.8407 53.209 59.4782 54.1818 56.6989 54.1818C53.9195 54.1818 51.5571 53.209 49.6115 51.2635C47.666 49.3179 46.6932 46.9555 46.6932 44.1761H26.6818C26.6818 46.9555 25.709 49.3179 23.7635 51.2635C21.8179 53.209 19.4555 54.1818 16.6761 54.1818ZM16.6761 47.5114C17.6211 47.5114 18.4138 47.1912 19.0542 46.5508C19.6945 45.9104 20.0136 45.1189 20.0114 44.1761C20.0091 43.2334 19.689 42.4418 19.0508 41.8014C18.4127 41.1611 17.6211 40.8409 16.6761 40.8409C15.7312 40.8409 14.9396 41.1611 14.3015 41.8014C13.6633 42.4418 13.3431 43.2334 13.3409 44.1761C13.3387 45.1189 13.6589 45.9116 14.3015 46.5541C14.944 47.1967 15.7356 47.5158 16.6761 47.5114ZM6.67045 37.5057H9.33864C10.2836 36.5051 11.3676 35.6991 12.5905 35.0876C13.8134 34.4762 15.1753 34.1704 16.6761 34.1704C18.177 34.1704 19.5389 34.4762 20.7618 35.0876C21.9847 35.6991 23.0687 36.5051 24.0136 37.5057H46.6932V7.48863H6.67045V37.5057ZM56.6989 47.5114C57.6438 47.5114 58.4365 47.1912 59.0769 46.5508C59.7172 45.9104 60.0363 45.1189 60.0341 44.1761C60.0319 43.2334 59.7117 42.4418 59.0735 41.8014C58.4354 41.1611 57.6438 40.8409 56.6989 40.8409C55.7539 40.8409 54.9623 41.1611 54.3242 41.8014C53.686 42.4418 53.3659 43.2334 53.3636 44.1761C53.3614 45.1189 53.6816 45.9116 54.3242 46.5541C54.9668 47.1967 55.7583 47.5158 56.6989 47.5114ZM53.3636 30.8352H67.5384L60.0341 20.8295H53.3636V30.8352Z" fill="#808080"/>
</svg>
