<svg width="57" height="57" viewBox="0 0 57 57" fill="none" xmlns="http://www.w3.org/2000/svg">
<mask id="path-1-inside-1_1550_2234" fill="white">
<path d="M28.375 0.5C12.9094 0.5 0.375 13.0344 0.375 28.5C0.375 43.9656 12.9094 56.5 28.375 56.5C43.8406 56.5 56.375 43.9656 56.375 28.5C56.375 13.0344 43.8406 0.5 28.375 0.5ZM28.375 51.8297C15.4906 51.8297 5.04531 41.3844 5.04531 28.5C5.04531 15.6156 15.4906 5.17031 28.375 5.17031C41.2594 5.17031 51.7047 15.6156 51.7047 28.5C51.7047 41.3844 41.2594 51.8297 28.375 51.8297ZM30.7047 23.8297V9.82969H26.0344V35.5L40.0344 21.5L36.5344 18L30.7047 23.8297Z"/>
</mask>
<path d="M28.375 0.5C12.9094 0.5 0.375 13.0344 0.375 28.5C0.375 43.9656 12.9094 56.5 28.375 56.5C43.8406 56.5 56.375 43.9656 56.375 28.5C56.375 13.0344 43.8406 0.5 28.375 0.5ZM28.375 51.8297C15.4906 51.8297 5.04531 41.3844 5.04531 28.5C5.04531 15.6156 15.4906 5.17031 28.375 5.17031C41.2594 5.17031 51.7047 15.6156 51.7047 28.5C51.7047 41.3844 41.2594 51.8297 28.375 51.8297ZM30.7047 23.8297V9.82969H26.0344V35.5L40.0344 21.5L36.5344 18L30.7047 23.8297Z" fill="#808080"/>
<path d="M30.7047 23.8297H10.7047V72.114L44.8468 37.9718L30.7047 23.8297ZM30.7047 9.82969H50.7047V-10.1703H30.7047V9.82969ZM26.0344 9.82969V-10.1703H6.03438V9.82969H26.0344ZM26.0344 35.5H6.03438V83.7843L40.1765 49.6421L26.0344 35.5ZM40.0344 21.5L54.1765 35.6421L68.3186 21.5L54.1765 7.35786L40.0344 21.5ZM36.5344 18L50.6765 3.85786L36.5344 -10.2843L22.3922 3.85786L36.5344 18ZM28.375 -19.5C1.86368 -19.5 -19.625 1.98868 -19.625 28.5H20.375C20.375 24.0801 23.9551 20.5 28.375 20.5V-19.5ZM-19.625 28.5C-19.625 55.0113 1.86368 76.5 28.375 76.5V36.5C23.9551 36.5 20.375 32.9199 20.375 28.5H-19.625ZM28.375 76.5C54.8863 76.5 76.375 55.0113 76.375 28.5H36.375C36.375 32.9199 32.7949 36.5 28.375 36.5V76.5ZM76.375 28.5C76.375 1.98868 54.8863 -19.5 28.375 -19.5V20.5C32.7949 20.5 36.375 24.0801 36.375 28.5H76.375ZM28.375 31.8297C26.5363 31.8297 25.0453 30.3387 25.0453 28.5H-14.9547C-14.9547 52.4301 4.44493 71.8297 28.375 71.8297V31.8297ZM25.0453 28.5C25.0453 26.6613 26.5363 25.1703 28.375 25.1703V-14.8297C4.44493 -14.8297 -14.9547 4.56993 -14.9547 28.5H25.0453ZM28.375 25.1703C30.2137 25.1703 31.7047 26.6613 31.7047 28.5H71.7047C71.7047 4.56993 52.3051 -14.8297 28.375 -14.8297V25.1703ZM31.7047 28.5C31.7047 30.3387 30.2137 31.8297 28.375 31.8297V71.8297C52.3051 71.8297 71.7047 52.4301 71.7047 28.5H31.7047ZM50.7047 23.8297V9.82969H10.7047V23.8297H50.7047ZM30.7047 -10.1703H26.0344V29.8297H30.7047V-10.1703ZM6.03438 9.82969V35.5H46.0344V9.82969H6.03438ZM40.1765 49.6421L54.1765 35.6421L25.8922 7.35786L11.8922 21.3579L40.1765 49.6421ZM54.1765 7.35786L50.6765 3.85786L22.3922 32.1421L25.8922 35.6421L54.1765 7.35786ZM22.3922 3.85786L16.5626 9.68755L44.8468 37.9718L50.6765 32.1421L22.3922 3.85786Z" fill="#808080" mask="url(#path-1-inside-1_1550_2234)"/>
</svg>
