<svg width="60" height="63" viewBox="0 0 60 63" fill="none" xmlns="http://www.w3.org/2000/svg">
<path d="M11.3586 22.464C11.3586 27.3465 13.2982 32.029 16.7506 35.4814C20.203 38.9339 24.8855 40.8734 29.768 40.8734C34.6505 40.8734 39.333 38.9339 42.7854 35.4814C46.2378 32.029 48.1774 27.3465 48.1774 22.464C48.1774 17.5816 46.2378 12.8991 42.7854 9.44666C39.333 5.99424 34.6505 4.05469 29.768 4.05469C24.8855 4.05469 20.203 5.99424 16.7506 9.44666C13.2982 12.8991 11.3586 17.5816 11.3586 22.464Z" stroke="#808080" stroke-width="6.13645" stroke-linecap="round" stroke-linejoin="round"/>
<path d="M29.7556 40.8734L40.1876 58.9452L45.0906 49.0257L56.1301 49.7375L45.6981 31.6687M13.807 31.6687L3.375 49.7406L14.4145 49.0257L19.3175 58.9422L29.7495 40.8734" stroke="#808080" stroke-width="6.13645" stroke-linecap="round" stroke-linejoin="round"/>
</svg>
