<svg width="28" height="28" viewBox="0 0 28 28" fill="none" xmlns="http://www.w3.org/2000/svg">
<g clip-path="url(#clip0_2239_4815)">
<path d="M19.867 4.36178L18.9469 3.97094L18.1642 5.81101L19.0852 6.20298C19.8896 6.54488 20.5903 7.09169 21.1175 7.78888C21.6447 8.48607 21.9799 9.30929 22.0898 10.1764L22.215 11.168L24.1992 10.9166L24.074 9.92511C23.9202 8.71095 23.4509 7.55831 22.7127 6.58215C21.9745 5.60598 20.9933 4.84041 19.867 4.36178ZM18.4985 7.58257L17.5784 7.19173L16.7957 9.0318L17.7167 9.42377C17.9579 9.52636 18.1681 9.69038 18.3262 9.89949C18.4843 10.1086 18.5848 10.3555 18.6178 10.6156L18.743 11.6071L20.7271 11.3568L20.602 10.3642C20.5251 9.75716 20.2904 9.18084 19.9213 8.69275C19.5523 8.20467 19.0617 7.82189 18.4985 7.58257Z" fill="black"/>
<path d="M12.5068 3.29451L4.00784 2.11817L3.87074 3.10872C3.33644 6.92114 3.91941 10.8067 5.54899 14.2944C6.74979 16.8661 8.4816 19.1544 10.6305 21.0085C13.5445 23.5242 17.1256 25.1406 20.9398 25.6619L21.9304 25.799L23.1067 17.3L16.6838 14.9099L14.5863 16.4973C13.0503 15.1806 11.8156 13.5489 10.9661 11.7128L13.0626 10.1252L12.5068 3.29451Z" fill="black"/>
</g>
<defs>
<clipPath id="clip0_2239_4815">
<rect width="24" height="24" fill="white" transform="translate(3.29102) rotate(7.88023)"/>
</clipPath>
</defs>
</svg>
