<svg width="74" height="47" viewBox="0 0 74 47" fill="none" xmlns="http://www.w3.org/2000/svg">
<path d="M67.8684 11.4522C63.6809 14.7665 59.9321 18.5399 54.284 16.6469C49.2816 14.9678 45.0188 12.5591 46.2537 6.04371C44.6928 6.18836 43.7525 6.9619 43.1821 7.77318C40.4301 11.6849 36.0106 13.1566 32.2682 15.6281C25.3099 20.2317 17.9817 23.8415 9.56279 24.766C8.85442 24.8415 8.16486 25.1371 7.46903 25.3446C5.88931 25.8226 5.38154 27.0741 5.41915 28.5268C5.4693 30.1683 6.93619 30.1808 8.03949 30.3318C12.6533 30.9795 17.3047 30.7406 21.9373 30.6714C32.7634 30.5204 29.7983 32.2373 36.5497 24.112C40.1229 19.8103 44.5361 18.9235 50.015 20.9297C51.0744 21.3197 52.3407 21.1498 53.513 21.1876C54.7228 21.2253 56.1646 21.1687 56.1396 22.7976C56.1208 24.2126 54.7918 24.3384 53.6571 24.2377C50.2031 23.9359 47.0812 25.9861 43.5519 25.5396C42.1853 25.3635 41.0632 26.7345 40.3987 27.8979C36.3303 35.0233 30.0929 36.9918 22.3573 36.0799C19.1289 35.7026 15.8127 36.0422 12.5404 36.0044C10.3589 35.9793 8.18367 35.929 6.04603 35.3567C2.19702 34.3253 0.335201 32.5455 0.0907199 29.5331C-0.247792 25.288 1.63283 21.8982 5.21228 20.4895C8.69771 19.1185 12.4025 18.5399 16.0635 17.8984C18.176 17.5274 19.9877 16.7664 21.7868 15.5778C24.5827 13.7226 27.598 12.2069 30.5004 10.5026C33.6975 8.62848 37.0262 6.98077 39.471 3.98092C40.7811 2.37094 42.6806 1.32697 44.6803 0.584872C48.0905 -0.685502 49.7392 0.0377309 50.9052 3.50296C51.2499 4.52807 51.4443 5.62864 51.5383 6.71034C51.8831 10.7038 56.0957 13.0434 59.556 10.968C61.5746 9.7605 63.311 8.10021 65.248 6.75437C69.2663 3.96835 72.0183 4.94943 72.9398 9.71648C74.2311 16.3828 74.1246 23.1686 73.7046 29.9041C73.4789 33.5203 70.3821 35.9164 66.483 35.9793C61.2987 36.0673 56.1082 36.1051 50.9302 35.9667C48.686 35.9101 47.0812 36.6836 45.7836 38.4068C44.906 39.5703 43.9719 40.6897 43.0692 41.8343C39.145 46.7586 34.9575 47.834 28.8705 45.7398C27.6418 45.3184 26.1812 45.5574 24.8209 45.5134C23.7051 45.4756 22.7021 45.1172 22.771 43.8657C22.8275 42.8091 23.7866 42.35 24.777 42.4884C28.3439 42.9789 31.5473 40.7589 35.1643 41.2117C36.7503 41.413 37.9978 39.9162 38.7751 38.5955C42.5991 32.1241 48.1594 29.728 55.5378 30.6336C58.9417 31.055 62.4459 30.6965 65.9 30.7091C67.4923 30.7091 68.5078 30.1997 68.5015 28.357C68.4827 22.8919 68.7272 17.4142 67.8809 11.4585L67.8684 11.4522Z" fill="#01497C"/>
</svg>
