<svg width="24" height="25" viewBox="0 0 24 25" fill="none" xmlns="http://www.w3.org/2000/svg">
<path d="M12 1.52759L8.23 3.88759H5V5.88759L2.97 7.17759C2.39 7.52759 2 8.15759 2 8.88759V18.8876C2 19.418 2.21071 19.9267 2.58579 20.3018C2.96086 20.6769 3.46957 20.8876 4 20.8876H20C21.11 20.8876 22 19.9976 22 18.8876V8.88759C22 8.15759 21.61 7.52759 21.03 7.17759L19 5.88759V3.88759H15.77M7 5.88759H17V10.7676L12 13.8876L7 10.7676M8 6.88759V8.38759H16V6.88759M5 8.26759V9.51759L4 8.88759M19 8.26759L20 8.88759L19 9.51759M8 9.38759V10.8876H16V9.38759H8Z" fill="#121417"/>
</svg>
