<svg width="33" height="42" viewBox="0 0 33 42" fill="none" xmlns="http://www.w3.org/2000/svg">
<path d="M13.2804 30.7099C13.291 30.4772 13.676 30.3841 13.7882 30.5872C14.3255 31.5392 15.2395 32.9377 16.2783 33.5745C17.315 34.2092 18.9758 34.3912 20.0675 34.4377C20.3002 34.4483 20.3933 34.8312 20.1902 34.9455C19.2381 35.4829 17.8397 36.3968 17.2029 37.4335C16.566 38.4702 16.3862 40.1331 16.3397 41.2248C16.3291 41.4576 15.944 41.5485 15.8319 41.3454C15.2945 40.3934 14.3805 38.997 13.3439 38.3602C12.3072 37.7234 10.6443 37.5435 9.55257 37.497C9.31984 37.4864 9.22887 37.1014 9.43197 36.9892C10.384 36.4519 11.7804 35.5379 12.4172 34.4991C13.054 33.4624 13.2338 31.7995 13.2804 30.7099ZM30.6607 28.5942C30.6438 28.3615 30.2376 28.2642 30.117 28.463C29.7531 29.0618 29.2263 29.7811 28.6423 30.1408C28.0584 30.5004 27.1762 30.6401 26.478 30.6951C26.2453 30.712 26.1501 31.1182 26.3468 31.2388C26.9456 31.6027 27.667 32.1274 28.0246 32.7134C28.3821 33.2995 28.526 34.1796 28.5789 34.8778C28.5979 35.1105 29.002 35.2057 29.1247 35.0068C29.4886 34.4102 30.0133 33.6888 30.5993 33.3312C31.1854 32.9737 32.0634 32.8298 32.7616 32.7769C32.9943 32.7579 33.0916 32.3538 32.8927 32.2311C32.294 31.8672 31.5726 31.3425 31.215 30.7564C30.8575 30.1704 30.7157 29.2924 30.6607 28.5942ZM22.6465 4.2364L22.1345 3.589C20.1521 1.08616 19.162 -0.166327 18.0089 0.0177373C16.8559 0.203917 16.3037 1.70182 15.2014 4.69974L14.9179 5.47407C14.6027 6.32669 14.4461 6.75195 14.1478 7.06507C13.8453 7.37819 13.437 7.54109 12.6161 7.86902L11.8692 8.16734L11.3445 8.3789C8.80573 9.39443 7.52786 9.97201 7.36495 11.0933C7.19147 12.2887 8.40164 13.3127 10.822 15.3585L11.4482 15.8874C12.1358 16.4693 12.4807 16.7612 12.6753 17.1569C12.8742 17.5525 12.9017 18.0095 12.9588 18.9234L13.0096 19.7549C13.2063 22.9707 13.3058 24.5787 14.3509 25.133C15.3961 25.6873 16.6951 24.822 19.2932 23.0892L19.9659 22.6407C20.7064 22.1477 21.0746 21.9002 21.4956 21.8346C21.9187 21.7669 22.3461 21.8854 23.2008 22.1224L23.9794 22.3382C26.9879 23.1717 28.4921 23.5885 29.3109 22.7359C30.1318 21.8833 29.7256 20.324 28.9089 17.2076L28.6995 16.4016C28.4667 15.5151 28.3525 15.0729 28.416 14.635C28.4794 14.197 28.7164 13.812 29.1882 13.044L29.6177 12.3458C31.2806 9.6462 32.1121 8.29639 31.5726 7.21316C31.0352 6.13417 29.4844 6.03473 26.3807 5.8422L25.5788 5.79143C24.6966 5.73642 24.2565 5.70892 23.8736 5.50581C23.4928 5.30271 23.2093 4.94727 22.6465 4.2364ZM10.2296 23.963C5.70838 26.1718 1.94458 29.6711 0.524962 33.8517C-1.06603 23.8932 1.14274 17.4615 4.68227 13.4629C4.98693 14.087 5.38468 14.6032 5.74011 15.0073C6.4806 15.8451 7.54267 16.7422 8.62167 17.654L9.39812 18.3099L9.75779 18.6167C9.76837 18.7521 9.77894 18.9129 9.78952 19.1181L9.85299 20.1442C9.93762 21.53 10.0222 22.8819 10.2296 23.963Z" fill="white" fill-opacity="0.73"/>
</svg>
