<svg width="171" height="34" viewBox="0 0 171 34" fill="none" xmlns="http://www.w3.org/2000/svg">
<path d="M26.1716 14.7564L23.5531 17.4973C23.1935 17.8731 22.969 18.6042 23.068 19.1168L23.6192 22.1796C23.9761 24.1394 22.7892 25.0448 20.985 24.1993L17.9246 22.7546C17.4122 22.5139 16.5932 22.5619 16.1177 22.8717L13.5599 24.5132C11.5398 25.8068 10.2658 24.9465 10.7205 22.5923L11.356 19.3035C11.4728 18.7042 11.1778 17.9025 10.7161 17.5182L8.14371 15.381C6.30412 13.8505 6.73853 12.3747 9.11892 12.0924L12.1334 11.7413C12.6969 11.6756 13.3638 11.2022 13.6045 10.6897L15.0485 7.61523C15.9014 5.8178 17.3924 5.76326 18.3629 7.49951L19.8762 10.2112C20.1357 10.6676 20.762 11.0946 21.281 11.151L25.0505 11.6039C27.0851 11.8595 27.5895 13.2753 26.1716 14.7564Z" fill="#FFD700"/>
<path d="M57.0839 14.7564L54.4654 17.4973C54.1059 17.8731 53.8813 18.6042 53.9803 19.1168L54.5315 22.1796C54.8885 24.1394 53.7016 25.0448 51.8974 24.1993L48.837 22.7546C48.3246 22.5139 47.5056 22.5619 47.0301 22.8717L44.4723 24.5132C42.4522 25.8068 41.1781 24.9465 41.6329 22.5923L42.2684 19.3035C42.3851 18.7042 42.0902 17.9025 41.6284 17.5182L39.0561 15.381C37.2165 13.8505 37.6509 12.3747 40.0313 12.0924L43.0458 11.7413C43.6092 11.6756 44.2761 11.2022 44.5168 10.6897L45.9609 7.61523C46.8137 5.8178 48.3047 5.76326 49.2753 7.49951L50.7886 10.2112C51.0481 10.6676 51.6743 11.0946 52.1933 11.151L55.9629 11.6039C57.9975 11.8595 58.5019 13.2753 57.0839 14.7564Z" fill="#FFD700"/>
<path d="M87.996 14.7564L85.3775 17.4973C85.018 17.8731 84.7934 18.6042 84.8924 19.1168L85.4436 22.1796C85.8006 24.1394 84.6137 25.0448 82.8095 24.1993L79.7491 22.7546C79.2367 22.5139 78.4177 22.5619 77.9422 22.8717L75.3844 24.5132C73.3643 25.8068 72.0902 24.9465 72.545 22.5923L73.1805 19.3035C73.2973 18.7042 73.0023 17.9025 72.5405 17.5182L69.9682 15.381C68.1286 13.8505 68.563 12.3747 70.9434 12.0924L73.9579 11.7413C74.5213 11.6756 75.1883 11.2022 75.4289 10.6897L76.873 7.61523C77.7258 5.8178 79.2169 5.76326 80.1874 7.49951L81.7007 10.2112C81.9602 10.6676 82.5865 11.0946 83.1054 11.151L86.875 11.6039C88.9096 11.8595 89.414 13.2753 87.996 14.7564Z" fill="#FFD700"/>
<path d="M118.908 14.7564L116.29 17.4973C115.93 17.8731 115.706 18.6042 115.805 19.1168L116.356 22.1796C116.713 24.1394 115.526 25.0448 113.722 24.1993L110.661 22.7546C110.149 22.5139 109.33 22.5619 108.854 22.8717L106.297 24.5132C104.276 25.8068 103.002 24.9465 103.457 22.5923L104.093 19.3035C104.209 18.7042 103.914 17.9025 103.453 17.5182L100.88 15.381C99.0407 13.8505 99.4751 12.3747 101.855 12.0924L104.87 11.7413C105.433 11.6756 106.1 11.2022 106.341 10.6897L107.785 7.61523C108.638 5.8178 110.129 5.76326 111.099 7.49951L112.613 10.2112C112.872 10.6676 113.499 11.0946 114.018 11.151L117.787 11.6039C119.822 11.8595 120.326 13.2753 118.908 14.7564Z" fill="#FFD700"/>
<path d="M135.841 21.9241V19.6681L141.313 9.15605H144.409L138.601 20.4841L137.833 19.2841H149.281V21.9241H135.841ZM143.881 15.3241H146.857V25.9561H143.881V15.3241ZM152.727 22.8601C153.207 22.8601 153.599 23.0121 153.903 23.3161C154.223 23.6201 154.383 24.0121 154.383 24.4921C154.383 24.9881 154.223 25.3961 153.903 25.7161C153.599 26.0201 153.207 26.1721 152.727 26.1721C152.263 26.1721 151.871 26.0201 151.551 25.7161C151.247 25.3961 151.095 24.9881 151.095 24.4921C151.095 24.0121 151.247 23.6201 151.551 23.3161C151.871 23.0121 152.263 22.8601 152.727 22.8601ZM162.966 9.01205C164.134 9.01205 165.142 9.19605 165.99 9.56405C166.838 9.91605 167.494 10.4201 167.958 11.0761C168.422 11.7321 168.654 12.5081 168.654 13.4041C168.654 14.2041 168.438 14.9161 168.006 15.5401C167.59 16.1481 167.022 16.6281 166.302 16.9801C167.278 17.3321 168.054 17.8841 168.63 18.6361C169.206 19.3721 169.494 20.2441 169.494 21.2521C169.494 22.2441 169.23 23.1001 168.702 23.8201C168.174 24.5401 167.422 25.1001 166.446 25.5001C165.47 25.9001 164.318 26.1001 162.99 26.1001C161.662 26.1001 160.51 25.9081 159.534 25.5241C158.558 25.1241 157.806 24.5641 157.278 23.8441C156.75 23.1241 156.486 22.2761 156.486 21.3001C156.486 20.2761 156.79 19.3881 157.398 18.6361C158.006 17.8841 158.814 17.3321 159.822 16.9801C159.054 16.5961 158.446 16.0921 157.998 15.4681C157.55 14.8281 157.326 14.1081 157.326 13.3081C157.326 12.4121 157.558 11.6521 158.022 11.0281C158.486 10.3881 159.134 9.89205 159.966 9.54005C160.814 9.18805 161.814 9.01205 162.966 9.01205ZM162.966 18.3001C161.878 18.3001 161.03 18.5401 160.422 19.0201C159.814 19.4841 159.51 20.1321 159.51 20.9641C159.51 21.8281 159.814 22.5081 160.422 23.0041C161.03 23.4841 161.886 23.7241 162.99 23.7241C164.094 23.7241 164.95 23.4841 165.558 23.0041C166.166 22.5241 166.47 21.8521 166.47 20.9881C166.47 20.1561 166.158 19.5001 165.534 19.0201C164.926 18.5401 164.07 18.3001 162.966 18.3001ZM162.99 11.1961C162.062 11.1961 161.334 11.4041 160.806 11.8201C160.294 12.2361 160.038 12.8201 160.038 13.5721C160.038 14.3241 160.294 14.9081 160.806 15.3241C161.334 15.7401 162.062 15.9481 162.99 15.9481C163.934 15.9481 164.654 15.7401 165.15 15.3241C165.662 14.9081 165.918 14.3241 165.918 13.5721C165.918 12.8201 165.662 12.2361 165.15 11.8201C164.654 11.4041 163.934 11.1961 162.99 11.1961Z" fill="black"/>
</svg>
