<svg width="50" height="51" viewBox="0 0 50 51" fill="none" xmlns="http://www.w3.org/2000/svg">
<path d="M49.9999 25.1912C50.0056 25.9239 49.7828 26.6401 49.3627 27.2404C48.9425 27.8406 48.3458 28.295 47.6554 28.5405L33.4905 33.6916L28.3416 47.8543C28.0878 48.538 27.6309 49.1276 27.0322 49.544C26.4335 49.9604 25.7217 50.1836 24.9924 50.1836C24.2631 50.1836 23.5513 49.9604 22.9526 49.544C22.3539 49.1276 21.8969 48.538 21.6432 47.8543L16.4943 33.6893L2.32932 28.5405C1.64563 28.2867 1.05598 27.8297 0.639583 27.231C0.223189 26.6323 0 25.9205 0 25.1912C0 24.462 0.223189 23.7502 0.639583 23.1514C1.05598 22.5527 1.64563 22.0958 2.32932 21.842L16.4943 16.6931L21.6432 2.52818C21.8969 1.84448 22.3539 1.25483 22.9526 0.838436C23.5513 0.422042 24.2631 0.198853 24.9924 0.198853C25.7217 0.198853 26.4335 0.422042 27.0322 0.838436C27.6309 1.25483 28.0878 1.84448 28.3416 2.52818L33.4927 16.6931L47.6554 21.842C48.3458 22.0875 48.9425 22.5419 49.3627 23.1421C49.7828 23.7423 50.0056 24.4586 49.9999 25.1912Z" fill="white"/>
</svg>
