<svg width="91" height="91" viewBox="0 0 91 91" fill="none" xmlns="http://www.w3.org/2000/svg">
<path d="M45.598 8.17419C24.9735 8.17419 8.16699 24.9807 8.16699 45.6052C8.16699 66.2298 24.9735 83.0363 45.598 83.0363C66.2226 83.0363 83.0291 66.2298 83.0291 45.6052C83.0291 24.9807 66.2226 8.17419 45.598 8.17419ZM63.4901 36.9961L42.2667 58.2195C41.7426 58.7435 41.0315 59.043 40.2828 59.043C39.5342 59.043 38.823 58.7435 38.299 58.2195L27.706 47.6265C26.6205 46.541 26.6205 44.7443 27.706 43.6588C28.7915 42.5733 30.5882 42.5733 31.6737 43.6588L40.2828 52.268L59.5224 33.0284C60.6079 31.9429 62.4046 31.9429 63.4901 33.0284C64.5756 34.1139 64.5756 35.8732 63.4901 36.9961Z" fill="#23A26D"/>
</svg>
